<svg width="75" height="75" viewBox="0 0 75 75" fill="none" xmlns="http://www.w3.org/2000/svg">
<g id="Group">
<g id="Vector">
<path d="M42.9949 40.4324C42.8227 40.4633 42.6685 40.489 42.5349 40.5147C42.9358 36.3049 43.09 29.5738 40.9723 21.7685C38.9342 14.2562 37.0092 7.16019 30.5198 3.24853C23.0794 -1.23368 12.0306 -0.0899975 5.77763 5.81861C-1.44429 12.6447 0.303365 23.7603 2.087 35.0944C3.69073 45.2899 6.55379 63.4937 20.9102 70.9624C29.4737 75.4163 39.1886 74.4885 42.5349 74.2187C46.0816 73.9334 51.2937 73.0827 56.9325 70.4072C57.0789 70.3378 57.2434 70.2607 57.4542 70.1579C63.1855 67.3386 71.6564 60.5741 70.9856 53.0155C70.8674 51.6842 70.3919 49.5048 68.3924 46.9758C65.8506 43.9174 63.2163 42.4448 61.6228 41.7277C57.9451 40.0726 54.239 39.9338 51.0033 39.8233C48.5694 39.7411 46.9246 39.885 44.704 40.1754C43.4318 40.3425 42.4192 40.2448 41.2601 40.9053C39.7772 41.7509 38.4767 42.9151 37.4795 44.303C35.6985 46.7882 35.3541 49.4071 35.2667 50.8207" fill="white"/>
<path d="M42.9949 40.4324C42.8227 40.4633 42.6685 40.489 42.5349 40.5147C42.9358 36.3049 43.09 29.5738 40.9723 21.7685C38.9342 14.2562 37.0092 7.16019 30.5198 3.24853C23.0794 -1.23368 12.0306 -0.0899974 5.77763 5.81861C-1.44429 12.6447 0.303365 23.7603 2.087 35.0944C3.69073 45.2899 6.55379 63.4937 20.9102 70.9624C29.4737 75.4163 39.1886 74.4885 42.5349 74.2186C46.0816 73.9334 51.2937 73.0827 56.9325 70.4072C57.0789 70.3378 57.2434 70.2607 57.4542 70.1579C63.1855 67.3386 71.6564 60.5741 70.9856 53.0155C70.8674 51.6842 70.3919 49.5048 68.3924 46.9758C65.8506 43.9174 63.2163 42.4448 61.6228 41.7277C57.9451 40.0726 54.239 39.9338 51.0033 39.8233C48.5694 39.7411 46.9246 39.885 44.704 40.1754C43.4318 40.3425 42.4192 40.2448 41.2601 40.9053C39.7772 41.7509 38.4767 42.9151 37.4795 44.303C35.6985 46.7882 35.3541 49.4071 35.2667 50.8207" stroke="#7C406B" stroke-width="1.02803" stroke-miterlimit="10"/>
</g>
<path id="Vector_2" d="M61.7872 20.3573C61.6792 19.463 61.3143 17.5637 59.8108 16.0191C57.2381 13.3744 52.5529 13.0275 50.4968 14.8497C47.2714 17.7076 49.2195 27.0447 54.8171 31.8867C58.6722 35.2227 63.3035 35.5953 65.2156 35.639C67.9348 33.2411 72.7588 28.2038 73.4579 21.1798C73.6532 19.2265 74.0927 14.8111 71.5355 13.0866C69.8546 11.9558 67.724 12.5494 67.3205 12.6625C64.4215 13.4721 62.2729 16.5176 61.7872 20.3573Z" fill="white" stroke="#7C406B" stroke-width="1.02803" stroke-miterlimit="10"/>
</g>
</svg>
